# xmcd
#
# Track frame offsets:
#	150
#	8230
#	20994
#	32460
#	44820
#	58540
#	68745
#	87642
#	100235
#	113060
#	122810
#	134607
#	142980
#	154680
#	166909
#	184045
#	196457
#	206460
#	218370
#	230677
#
# Disc length: 3272 seconds
#
# Revision: 1
# Processed by: cddbd v1.5.1PL0 Copyright (c) Steve Scherf et al.
# Submitted via: EasyCDDAExtractor 7.1.1.1
#
DISCID=1d0cc614
DTITLE=Various Artist - Parhaat humpat, Heili Karjalasta
DYEAR=1998
DGENRE=Humppa
TTITLE0=Teijo Joutsela ja Humppa-Veikot - Tulipunaruusut
TTITLE1=Georg Malmstén - Heili Karjalasta
TTITLE2=Kauko Käyhkö - Irja
TTITLE3=Erkki Junkkarinen - Pieni hetki
TTITLE4=Juha Vainio - Sellanen ol' Viipuri
TTITLE5=Teijo Joutsela ja Humppa-Veikot - Alaska
TTITLE6=Berit - Keurusselän sini
TTITLE7=Tulipunaruusut ja Raimo Piipponen - Tammerkoski
TTITLE8=Mutkattomat - Jätkän humppa
TTITLE9=Solistiyhtye Suomi - Kaksi kolpakkoa
TTITLE10=Tulipunaruusut ja Raimo Piipponen - Karjalan Marjaana
TTITLE11=Teijo Joutsela ja Humppa-Veikot - Jazztyttö
TTITLE12=Berit - Odessa
TTITLE13=Erkki Junkkarinen - Lappeenrantaan
TTITLE14=Mutkattomat - Limperin muorin humppa
TTITLE15=Matti Louhivuori - Pieni polku
TTITLE16=Eija Sinikka - Petsamo
TTITLE17=Solistiyhtye Suomi - Autotyttö
TTITLE18=Eri esittäjiä - Reiluja Reiskoja huimia veikkoja
TTITLE19=Tähtiorkesteri Yölintu - Merimies
EXTD=
EXTT0=
EXTT1=
EXTT2=
EXTT3=
EXTT4=
EXTT5=
EXTT6=
EXTT7=
EXTT8=
EXTT9=
EXTT10=
EXTT11=
EXTT12=
EXTT13=
EXTT14=
EXTT15=
EXTT16=
EXTT17=
EXTT18=
EXTT19=
PLAYORDER=
